<svg xmlns="http://www.w3.org/2000/svg" version="1.1" viewBox="158 550.32 1217 432.68">
<path d="M0 0 C2.63037109 1.19580078 2.63037109 1.19580078 5.2734375 2.6953125 C6.26472656 3.24703125 7.25601563 3.79875 8.27734375 4.3671875 C9.29957031 4.94726562 10.32179688 5.52734375 11.375 6.125 C18.70697989 10.27626515 26.0626607 13.975092 33.80249023 17.27986145 C41.51202963 20.59843923 48.93433403 24.43639126 56.375 28.3125 C57.83253234 29.06710836 59.29013399 29.82158289 60.74780273 30.57592773 C68.86187731 34.78583099 76.94947314 39.03880142 84.87060547 43.60473633 C91.35847248 47.31777891 98.08116453 50.57540059 104.77536011 53.89523315 C108.52098584 55.75532887 112.2601317 57.62836338 116 59.5 C117.49736533 60.24875892 118.99476114 60.9974569 120.4921875 61.74609375 C127.328125 65.1640625 134.1640625 68.58203125 141 72 C141 72.99 141 73.98 141 75 C125.89844582 82.99176687 110.67261208 90.70956467 95.36572266 98.29858398 C94.64995056 98.65435516 93.93417847 99.01012634 93.19671631 99.37667847 C91.85292271 100.04451285 90.50829255 100.71066777 89.16265869 101.37478638 C86.44371135 102.72695032 83.81876189 104.11334202 81.24267578 105.72436523 C79 107 79 107 76 107 C76 114.92 76 122.84 76 131 C69.28505775 129.65701155 65.69428576 126.8006452 60.5 122.5 C41.42988429 107.39788973 17.99804876 98.55818857 -6.3125 98.6875 C-7.95943848 98.69487183 -7.95943848 98.69487183 -9.63964844 98.70239258 C-22.75672644 98.89152525 -33.9366529 101.78763527 -46 107 C-46.86238281 107.36867188 -47.72476563 107.73734375 -48.61328125 108.1171875 C-58.84022685 112.84735373 -67.4567672 119.91733701 -74.96484375 128.25 C-77.3390214 130.29151936 -78.96215285 130.4998914 -82 131 C-82.05899621 127.22923455 -82.09392568 123.45859074 -82.125 119.6875 C-82.14175781 118.63498047 -82.15851563 117.58246094 -82.17578125 116.49804688 C-82.23821389 106.35274232 -81.95599909 96.00277565 -75 88 C-71.024562 84.39057258 -67.21694486 81.83621061 -62.375 79.4375 C-60.71597656 78.60025391 -60.71597656 78.60025391 -59.0234375 77.74609375 C-28.20807868 63.70865852 7.55242488 66.35367893 40 72 C10.28491028 63.81027014 -20.69079047 57.72976645 -51 67 C-52.12414307 67.33741211 -52.12414307 67.33741211 -53.27099609 67.68164062 C-70.41752101 72.89667813 -70.41752101 72.89667813 -82.8828125 85.078125 C-85.30213923 91.4055949 -85.55322822 98.29072027 -86 105 C-90.64736909 104.38214168 -94.45325514 102.44454299 -98.5625 100.3125 C-99.87621288 99.64175234 -101.19001776 98.97118484 -102.50390625 98.30078125 C-103.98761719 97.54152344 -105.47132813 96.78226563 -107 96 C-110.96 94.02 -114.92 92.04 -119 90 C-119.33 104.52 -119.66 119.04 -120 134 C-118.68 134.33 -117.36 134.66 -116 135 C-113.52657734 138.71013399 -113.61496514 140.61060262 -114 145 C-114.515625 145.61875 -115.03125 146.2375 -115.5625 146.875 C-117.59655284 149.88186072 -117.04585483 151.97124996 -116.52734375 155.47265625 C-115.6374242 159.73767811 -114.37163415 163.86784428 -113 168 C-114 169 -114 169 -115.94946289 169.11352539 C-116.7821167 169.10828857 -117.61477051 169.10305176 -118.47265625 169.09765625 C-119.37177734 169.09443359 -120.27089844 169.09121094 -121.19726562 169.08789062 C-122.14279297 169.07951172 -123.08832031 169.07113281 -124.0625 169.0625 C-125.01189453 169.05798828 -125.96128906 169.05347656 -126.93945312 169.04882812 C-129.29303065 169.0370011 -131.64648477 169.02052025 -134 169 C-132.74078043 162.17957135 -131.10931548 155.60918849 -129 149 C-129.99 148.67 -130.98 148.34 -132 148 C-134.06317072 145.31787807 -133.99303734 143.86770942 -133.8125 140.4375 C-132.72963605 135.85615251 -132.72963605 135.85615251 -130 134 C-129.34 134 -128.68 134 -128 134 C-128 117.83 -128 101.66 -128 85 C-129.65 84.34 -131.3 83.68 -133 83 C-135.41082959 81.8771108 -137.80215813 80.73647703 -140.1875 79.5625 C-140.81591797 79.26279297 -141.44433594 78.96308594 -142.09179688 78.65429688 C-145.36669027 77.03961682 -146.93059272 76.10411092 -149 73 C-140.07041945 67.59525388 -130.85308006 62.87451657 -121.5 58.25 C-109.95861474 52.54067626 -98.61389008 46.53288279 -87.34814453 40.29589844 C-72.47216854 32.08611672 -57.30236593 24.53116428 -41.93554688 17.28759766 C-29.31561237 11.33351408 -29.31561237 11.33351408 -17.015625 4.75390625 C-16.01063965 4.19135132 -16.01063965 4.19135132 -14.98535156 3.61743164 C-13.69782735 2.89276387 -12.4178819 2.15439615 -11.14746094 1.40014648 C-6.90512879 -0.97871497 -4.6586198 -1.12982653 0 0 Z " fill="#FEFEFE" transform="translate(927,551)"/>
<path d="M0 0 C3.48000211 3.6696102 6.29083699 7.73859122 9 12 C9.55945313 12.83144531 10.11890625 13.66289063 10.6953125 14.51953125 C23.20698745 33.97864379 27.87940505 59.04917884 23.8125 81.6875 C19.9563031 98.53583693 14.23480883 112.49178762 2 125 C1.13375 125.886875 0.2675 126.77375 -0.625 127.6875 C-1.92520379 128.9534879 -3.24579635 130.20317608 -4.64453125 131.359375 C-10.78694892 136.76577312 -13.04826863 143.52664135 -16 151 C-16.88226751 152.96448233 -17.77696254 154.92346001 -18.6875 156.875 C-20.15053074 160.02864404 -21.41214232 163.13746244 -22.5 166.4375 C-24.1545792 170.3671256 -25.70047594 171.46190457 -29 174 C-30.18335395 176.88318775 -30.18335395 176.88318775 -31 180 C-31.99 181.98 -32.98 183.96 -34 186 C-56.11 186 -78.22 186 -101 186 C-105 177 -105 177 -104 173 C-104.77472656 172.75507812 -105.54945313 172.51015625 -106.34765625 172.2578125 C-109.44509141 170.78892572 -110.02230688 169.93347598 -111.4375 166.875 C-111.84871094 165.98683594 -112.25992188 165.09867188 -112.68359375 164.18359375 C-114.22009586 160.46772069 -115.61583614 156.71209289 -117 152.9375 C-120.82840914 142.6291451 -124.62541946 136.09247312 -132.98291016 128.72167969 C-138.80314274 123.48989883 -142.94938812 117.72089354 -147 111 C-147.56332031 110.06929687 -148.12664063 109.13859375 -148.70703125 108.1796875 C-159.78752452 88.03843644 -162.30607674 61.98372501 -156.19921875 39.96875 C-149.21073407 16.43341095 -137.63915913 -2.66307619 -115.86181641 -15.00683594 C-79.24665482 -34.53876321 -30.38606343 -28.18189303 0 0 Z M-123.5625 11 C-124.30338867 11.7525708 -125.04427734 12.5051416 -125.80761719 13.28051758 C-141.67059423 29.78606775 -146.47253356 48.06622277 -146.21484375 70.46484375 C-145.73100365 88.18060411 -138.58649436 106.32338755 -126 119 C-124.04161086 120.75366601 -122.06006367 122.46199278 -120.02734375 124.12890625 C-114.09806783 129.60120522 -111.35744865 135.15265776 -108.375 142.5625 C-105.20554269 151.38290594 -105.20554269 151.38290594 -100 159 C-96.93644217 159.10176657 -93.89600741 159.13962702 -90.83203125 159.1328125 C-89.88680099 159.13376923 -88.94157074 159.13472595 -87.96769714 159.13571167 C-85.94745823 159.13639498 -83.92721717 159.13453026 -81.90698242 159.13037109 C-78.89822023 159.12514878 -75.88961608 159.13024456 -72.88085938 159.13671875 C-59.56184144 159.14083629 -46.29907377 158.71710292 -33 158 C-32.73372803 157.25427734 -32.46745605 156.50855469 -32.19311523 155.74023438 C-30.95981571 152.31979878 -29.69896146 148.91014472 -28.4375 145.5 C-28.01919922 144.32695313 -27.60089844 143.15390625 -27.16992188 141.9453125 C-24.46458849 134.70396901 -21.55421121 129.38149565 -16 124 C-14.81160477 122.77169885 -13.62399709 121.54263479 -12.4375 120.3125 C-10.35391917 118.23820016 -8.3681844 116.5261383 -6 114.75 C4.77195627 106.0229873 10.42656569 89.28205362 12 76 C13.29498879 52.69020181 6.44476644 33.17397085 -8 15 C-8.66 15 -9.32 15 -10 15 C-10 14.34 -10 13.68 -10 13 C-23.00424223 -0.76706091 -39.12964388 -7.57331491 -57.859375 -8.2890625 C-81.92924758 -8.79366028 -105.95526742 -6.98026716 -123.5625 11 Z " fill="#FFE9DE" transform="translate(991,684)"/>
<path d="M0 0 C5.10981263 4.40896551 7.09450957 10.08040485 8.20703125 16.56640625 C8.39831951 18.36802564 8.39831951 18.36802564 9.56640625 19.3515625 C9.77394531 18.6503125 9.98148438 17.9490625 10.1953125 17.2265625 C12.88700114 8.93751296 16.2332955 2.83908904 23.94140625 -1.5859375 C32.67718781 -4.1464252 39.57030594 -4.19546903 47.75390625 -0.0234375 C55.02116846 6.1133617 57.99453051 14.93633035 58.82553101 24.25839233 C58.90997986 27.29807633 58.90477729 30.32280424 58.859375 33.36328125 C58.85513016 34.45751907 58.85088531 35.5517569 58.84651184 36.67915344 C58.82988106 40.13271972 58.79225845 43.5856762 58.75390625 47.0390625 C58.73883924 49.39777796 58.72515439 51.75650268 58.71289062 54.11523438 C58.68002875 59.86090771 58.62835587 65.60613216 58.56640625 71.3515625 C51.96640625 71.3515625 45.36640625 71.3515625 38.56640625 71.3515625 C38.51742187 68.83144531 38.4684375 66.31132813 38.41796875 63.71484375 C38.36370312 61.22903336 38.30649715 58.74330641 38.24902344 56.25756836 C38.2111305 54.55190447 38.1762147 52.84617139 38.14453125 51.14038086 C38.82929015 32.44805355 38.82929015 32.44805355 31.56640625 16.3515625 C28.14341984 14.87135216 26.61028829 15.33847487 23.00390625 16.4140625 C17.87633314 19.30414916 16.14697675 22.40214804 14.48681641 27.9765625 C13.39975056 32.54435593 13.21893462 36.98423928 13.15234375 41.6640625 C13.1329776 42.51838867 13.11361145 43.37271484 13.09365845 44.25292969 C13.03440095 46.95237588 12.98769503 49.65186599 12.94140625 52.3515625 C12.90317679 54.19402789 12.86412226 56.03647636 12.82421875 57.87890625 C12.72720794 62.36969811 12.64721434 66.86033367 12.56640625 71.3515625 C5.96640625 71.3515625 -0.63359375 71.3515625 -7.43359375 71.3515625 C-7.48257813 69.07121094 -7.5315625 66.79085937 -7.58203125 64.44140625 C-7.63638825 62.1772733 -7.69355738 59.91322706 -7.75097656 57.64916992 C-7.78873072 56.10268905 -7.82366517 54.55613618 -7.85546875 53.00952148 C-7.40117813 34.28188924 -7.40117813 34.28188924 -13.43359375 17.3515625 C-16.65626834 15.7402252 -19.93946266 15.90722213 -23.43359375 16.3515625 C-27.40112981 18.24515926 -28.87610154 20.80761431 -30.52734375 24.7265625 C-33.61993834 33.51418013 -33.11378042 42.83587949 -33.18359375 52.0390625 C-33.21179951 53.91604261 -33.24173325 55.7929976 -33.2734375 57.66992188 C-33.34995403 62.23070952 -33.39098068 66.78983366 -33.43359375 71.3515625 C-40.36359375 71.3515625 -47.29359375 71.3515625 -54.43359375 71.3515625 C-54.43359375 47.2615625 -54.43359375 23.1715625 -54.43359375 -1.6484375 C-48.82359375 -1.6484375 -43.21359375 -1.6484375 -37.43359375 -1.6484375 C-37.43359375 5.9415625 -37.43359375 13.5315625 -37.43359375 21.3515625 C-36.77359375 21.3515625 -36.11359375 21.3515625 -35.43359375 21.3515625 C-35.37171875 20.4028125 -35.30984375 19.4540625 -35.24609375 18.4765625 C-34.13431914 10.96827645 -30.35770171 4.08163293 -24.3125 -0.52734375 C-16.84855872 -4.98088044 -7.30453963 -4.7115128 0 0 Z " fill="#FFFFFF" transform="translate(636.43359375,764.6484375)"/>
<path d="M0 0 C7.26 0 14.52 0 22 0 C25.3 18.15 28.6 36.3 32 55 C33.65824795 51.68350411 34.48409387 49.4003032 35.23681641 45.86425781 C35.45689362 44.84350159 35.67697083 43.82274536 35.90371704 42.77105713 C36.13400604 41.67613953 36.36429504 40.58122192 36.6015625 39.453125 C36.9635524 37.76361725 36.9635524 37.76361725 37.33285522 36.03997803 C38.10201209 32.44438706 38.86359316 28.84723925 39.625 25.25 C40.14533499 22.81109154 40.66616236 20.37228808 41.1875 17.93359375 C42.46497872 11.95710889 43.73220209 5.97857879 45 0 C53.25 0 61.5 0 70 0 C71.71192085 7.6348613 73.42192165 15.27009892 75.12695312 22.90649414 C75.70748428 25.50546872 76.28986607 28.10400898 76.87304688 30.70239258 C77.71001358 34.43244574 78.54291008 38.16338758 79.375 41.89453125 C79.63748535 43.06023148 79.8999707 44.2259317 80.17041016 45.42695618 C80.41065918 46.50785019 80.6509082 47.5887442 80.8984375 48.70239258 C81.21820557 50.13135612 81.21820557 50.13135612 81.54443359 51.58918762 C82 54 82 54 82 57 C82.66 57 83.32 57 84 57 C84.05115967 56.32924942 84.10231934 55.65849884 84.1550293 54.96742249 C84.70179113 48.35237493 85.60337859 41.89499482 86.8125 35.37109375 C86.98628174 34.41477554 87.16006348 33.45845734 87.33911133 32.47315979 C87.70324247 30.47541527 88.06971918 28.47809693 88.43847656 26.48120117 C89.004154 23.41498351 89.56119278 20.34728354 90.1171875 17.27929688 C90.47345446 15.33063698 90.83020747 13.38206587 91.1875 11.43359375 C91.35419189 10.51597763 91.52088379 9.59836151 91.69262695 8.65293884 C91.92792114 7.38505272 91.92792114 7.38505272 92.16796875 6.09155273 C92.30485107 5.34751694 92.4417334 4.60348114 92.58276367 3.8368988 C93 2 93 2 94 0 C100.93 0 107.86 0 115 0 C111.95370131 14.0204957 108.62440074 27.95967197 105.19897461 41.89208984 C104.30061692 45.54836357 103.4069988 49.2057755 102.51367188 52.86328125 C101.94298947 55.19017314 101.3720363 57.51699863 100.80078125 59.84375 C100.53413162 60.93627075 100.26748199 62.0287915 99.99275208 63.15441895 C99.7454686 64.15726929 99.49818512 65.16011963 99.2434082 66.19335938 C99.02675003 67.07616577 98.81009186 67.95897217 98.58686829 68.86853027 C98 71 98 71 97 73 C87.43 73 77.86 73 68 73 C66.57234199 65.81072215 65.14698474 58.62106829 63.72753906 51.43017578 C63.24387546 48.98361698 62.75885696 46.53732563 62.27246094 44.09130859 C61.57391422 40.57719091 60.88023177 37.06214298 60.1875 33.546875 C59.96876221 32.4519574 59.75002441 31.35703979 59.5246582 30.22894287 C59.32445068 29.20818665 59.12424316 28.18743042 58.91796875 27.13574219 C58.65149536 25.79005157 58.65149536 25.79005157 58.37963867 24.41717529 C58 22 58 22 58 18 C57.34 18 56.68 18 56 18 C55.92767906 18.8945137 55.92767906 18.8945137 55.85389709 19.80709839 C55.27868522 26.24811233 54.23474569 32.48970986 52.93359375 38.8203125 C52.73524429 39.80498505 52.53689484 40.78965759 52.33253479 41.8041687 C51.70541351 44.91205509 51.0715776 48.01852623 50.4375 51.125 C50.00801666 53.24730545 49.57897601 55.36970053 49.15039062 57.4921875 C48.10619071 62.66269387 47.05289807 67.83122765 46 73 C36.76 73 27.52 73 18 73 C16.43519699 69.08799247 15.30513254 65.57192986 14.30419922 61.51318359 C14.14785004 60.88329025 13.99150085 60.25339691 13.83041382 59.60441589 C13.31821064 57.53663329 12.81127649 55.46760208 12.3046875 53.3984375 C11.94903825 51.9554012 11.59316945 50.51241899 11.23709106 49.06948853 C10.49343791 46.05243193 9.75238618 43.03475156 9.01318359 40.01660156 C8.06528961 36.14724084 7.11100759 32.27948927 6.15479851 28.41217613 C5.41965414 25.43600037 4.68783761 22.45901414 3.95703506 19.48176956 C3.60639008 18.05495865 3.25471838 16.62839966 2.90200424 15.20209885 C2.4102948 13.21155224 1.92306196 11.21996222 1.43701172 9.22802734 C1.15880585 8.09505219 0.88059998 6.96207703 0.59396362 5.79476929 C0 3 0 3 0 0 Z " fill="#FFFFFF" transform="translate(1068,763)"/>
<path d="M0 0 C6.93 0 13.86 0 21 0 C21.03738281 2.48273437 21.07476563 4.96546875 21.11328125 7.5234375 C21.15964903 9.95955626 21.21082676 12.39553058 21.26245117 14.83154297 C21.29546296 16.50918613 21.32356676 18.18693402 21.34643555 19.86474609 C21.25975661 33.27786126 21.25975661 33.27786126 25 46 C27.98947144 48.90643057 29.40196459 49 33.5625 49 C37.77771254 47.77375635 38.77080113 46.74186952 41 43 C44.28878373 35.96524735 45.06713134 28.91892841 45.31640625 21.19140625 C45.37924805 19.33032227 45.37924805 19.33032227 45.44335938 17.43164062 C45.48267578 16.15482422 45.52199219 14.87800781 45.5625 13.5625 C45.62727539 11.60666992 45.62727539 11.60666992 45.69335938 9.61132812 C45.79897473 6.40766242 45.89994639 3.20384422 46 0 C52.93 0 59.86 0 67 0 C67.04996553 7.3791407 67.08598369 14.75817985 67.10986328 22.13745117 C67.11983326 24.64039834 67.13341409 27.14333414 67.15087891 29.64624023 C67.46847427 76.37946318 67.46847427 76.37946318 54.5078125 89.83203125 C44.44245864 98.53338856 32.66693754 98.79578374 20 98 C12.63451035 97.01844996 4.48187267 95.43567712 -1 90 C-2.51151237 87.03909222 -1.89049187 85.59632297 -1.00390625 82.328125 C-0.53410095 80.96502794 -0.0532655 79.60569164 0.4375 78.25 C0.68048828 77.55261719 0.92347656 76.85523438 1.17382812 76.13671875 C1.77310248 74.42114902 2.38529885 72.71010285 3 71 C5.98929238 72.13684464 8.45819593 73.28749549 11.1875 75 C18.53610603 79.24692167 26.80955451 79.71460883 35 78 C39.72170868 76.25121901 42.31355034 74.26126498 45 70 C47.69390083 63.60759437 48.63802511 57.30845665 49.1875 50.4375 C49.26935547 49.52419922 49.35121094 48.61089844 49.43554688 47.66992188 C49.63337481 45.44726687 49.82135324 43.22426445 50 41 C49.34 41 48.68 41 48 41 C47.9071875 42.918125 47.9071875 42.918125 47.8125 44.875 C47.05230945 51.39825677 44.77820693 57.27691622 40.03125 61.9296875 C33.31508046 67.16729733 27.39122669 67.61683081 19 67 C13.45866691 65.9675123 9.77377121 63.59726496 6.31640625 59.16015625 C0.9208259 50.30628107 -0.15958365 40.79055142 -0.09765625 30.6640625 C-0.0962413 29.78471039 -0.09482635 28.90535828 -0.09336853 27.99935913 C-0.08779877 25.20787058 -0.0752519 22.41646406 -0.0625 19.625 C-0.05748109 17.72526158 -0.05291887 15.8255219 -0.04882812 13.92578125 C-0.03869279 9.28379761 -0.01911158 4.64198997 0 0 Z " fill="#FFFFFF" transform="translate(710,763)"/>
<path d="M0 0 C6.93 0 13.86 0 21 0 C21 32.34 21 64.68 21 98 C15.39 98 9.78 98 4 98 C4 91.07 4 84.14 4 77 C3.34 77 2.68 77 2 77 C1.79375 78.299375 1.5875 79.59875 1.375 80.9375 C-0.10977958 87.56672712 -3.51817943 93.58378604 -9.1875 97.5 C-16.08354302 101.17788961 -25.00064588 101.02550854 -32.58984375 99.46875 C-40.6200406 96.63274958 -44.98715644 91.21617978 -49 84 C-55.08981804 69.70421094 -54.22038166 54.21352875 -49.2265625 39.76171875 C-46.40835799 33.10403378 -40.80945582 27.62059723 -34.171875 24.796875 C-27.04494181 23.00636469 -18.1873831 22.50482453 -11.375 25.625 C-4.83241972 29.68933018 -1.43208962 35.86677624 1 43 C1 43.99 1 44.98 1 46 C1.66 46 2.32 46 3 46 C2.7834375 45.02546875 2.566875 44.0509375 2.34375 43.046875 C-0.55780901 28.72700029 -0.27955202 14.55741257 0 0 Z M-28 47 C-32.19194146 53.44455058 -31.75807825 61.62979481 -31 69 C-29.47403837 74.800295 -27.1681444 78.7359088 -22 82 C-18.76430484 83.61784758 -15.50685471 83.42565084 -12 83 C-7.03559108 81.14886447 -4.73724297 79.19310036 -2.0625 74.625 C1.04444994 67.67037033 1.41786965 59.81924844 -0.734375 52.50390625 C-2.69570689 48.25167441 -5.41364984 45.03460398 -9 42 C-16.86325829 39.3789139 -22.74659573 40.39409328 -28 47 Z " fill="#FFFFFF" transform="translate(465,738)"/>
<path d="M0 0 C1.25159912 0.00523682 2.50319824 0.01047363 3.79272461 0.01586914 C4.78942421 0.01799156 4.78942421 0.01799156 5.80625916 0.02015686 C7.93590735 0.02577021 10.06545175 0.03832485 12.19506836 0.05102539 C13.63582205 0.05603868 15.07657739 0.06060188 16.51733398 0.06469727 C20.05577938 0.07574394 23.59416375 0.09301747 27.13256836 0.11352539 C35.20444152 23.12362816 43.20637954 46.15635679 51.07006836 69.23852539 C51.42617187 70.28219269 51.78227539 71.32585999 52.14916992 72.40115356 C53.15452773 75.34894721 54.15766255 78.2974862 55.15991211 81.24633789 C55.46231308 82.13285538 55.76471405 83.01937286 56.07627869 83.93275452 C58.13256836 89.99809645 58.13256836 89.99809645 58.13256836 91.11352539 C50.54256836 91.11352539 42.95256836 91.11352539 35.13256836 91.11352539 C34.30756836 88.67977539 33.48256836 86.24602539 32.63256836 83.73852539 C32.24101562 82.5911792 32.24101562 82.5911792 31.84155273 81.4206543 C30.13256836 76.33574761 30.13256836 76.33574761 30.13256836 74.11352539 C18.25256836 74.44352539 6.37256836 74.77352539 -5.86743164 75.11352539 C-7.51743164 80.39352539 -9.16743164 85.67352539 -10.86743164 91.11352539 C-18.45743164 91.11352539 -26.04743164 91.11352539 -33.86743164 91.11352539 C-32.00899232 84.91872766 -30.13277317 78.77162277 -28.06420898 72.65039062 C-27.80203079 71.87025101 -27.5398526 71.09011139 -27.26972961 70.28633118 C-26.41601006 67.74767296 -25.55983991 65.20985038 -24.70336914 62.67211914 C-24.10464554 60.89520769 -23.50598321 59.11827558 -22.90737915 57.34132385 C-21.65955474 53.63861232 -20.41039974 49.93635283 -19.16040039 46.234375 C-17.55545232 41.48054687 -15.95479595 36.72528566 -14.35521507 31.96964931 C-13.12367245 28.31026282 -11.88943378 24.65179004 -10.6544075 20.99357796 C-10.06256431 19.23913418 -9.47167857 17.48436711 -8.88175583 15.72927666 C-8.06126966 13.2892613 -7.23706387 10.85053432 -6.41186523 8.41210938 C-6.1677037 7.68335602 -5.92354218 6.95460266 -5.67198181 6.20376587 C-3.61315159 0.14304942 -3.61315159 0.14304942 0 0 Z M11.13256836 16.11352539 C9.41637501 21.59225965 7.70758771 27.0732278 6.00561523 32.55639648 C5.42561449 34.42128702 4.84359681 36.28555151 4.25952148 38.14916992 C3.42021838 40.82837389 2.58820017 43.50974729 1.75756836 46.19165039 C1.49508301 47.02408264 1.23259766 47.85651489 0.9621582 48.71417236 C0.72190918 49.49467957 0.48166016 50.27518677 0.23413086 51.0793457 C0.02095215 51.76329407 -0.19222656 52.44724243 -0.41186523 53.1519165 C-1.01824538 55.42727365 -1.01824538 55.42727365 -0.86743164 59.11352539 C7.71256836 59.11352539 16.29256836 59.11352539 25.13256836 59.11352539 C23.84655589 53.32646926 22.52077884 47.70695534 20.82006836 42.05102539 C20.60568115 41.33366211 20.39129395 40.61629883 20.17041016 39.87719727 C19.72173296 38.38106218 19.27128057 36.88545836 18.8190918 35.39038086 C18.12649551 33.09338478 17.44585087 30.79304509 16.76538086 28.49243164 C16.32600121 27.03257797 15.88592286 25.57293436 15.44506836 24.11352539 C15.24292725 23.42508545 15.04078613 22.73664551 14.83251953 22.02734375 C14.3245519 20.37026584 13.73556272 18.7384365 13.13256836 17.11352539 C12.47256836 16.78352539 11.81256836 16.45352539 11.13256836 16.11352539 Z " fill="#FFFFFF" transform="translate(191.867431640625,744.886474609375)"/>
<path d="M0 0 C1.05826996 -0.00095673 2.11653992 -0.00191345 3.20687866 -0.00289917 C5.43056295 -0.00357599 7.65424926 -0.00175665 9.87792969 0.00244141 C13.27022754 0.00780742 16.66239366 0.00247393 20.0546875 -0.00390625 C22.22395862 -0.00324559 24.39322967 -0.00196468 26.5625 0 C27.5699527 -0.00202423 28.5774054 -0.00404846 29.61538696 -0.00613403 C43.53892188 0.03999528 43.53892188 0.03999528 46.984375 3.43359375 C47.65726563 4.42746094 48.33015625 5.42132812 49.0234375 6.4453125 C49.77238281 7.52296875 50.52132813 8.600625 51.29296875 9.7109375 C51.67533691 10.27361328 52.05770508 10.83628906 52.45166016 11.41601562 C53.66062582 13.15029684 54.92507447 14.82337897 56.22265625 16.4921875 C56.84744873 17.29789185 56.84744873 17.29789185 57.48486328 18.11987305 C58.09177002 18.89971558 58.09177002 18.89971558 58.7109375 19.6953125 C62.6484375 24.76358173 62.6484375 24.76358173 62.6484375 28.1328125 C56.42671369 27.73545871 50.21447583 27.31860295 44.01635742 26.64306641 C32.12447223 25.35963068 20.37777935 24.81723263 8.41894531 24.87207031 C5.64886616 24.88281084 2.8794351 24.87207722 0.109375 24.859375 C-16.51023395 24.84534916 -33.16412589 25.84288914 -49.4765625 29.1953125 C-50.50313965 29.40591309 -51.5297168 29.61651367 -52.58740234 29.83349609 C-72.97077704 34.2574365 -91.949693 41.71382061 -110.44165039 51.26586914 C-112.3515625 52.1328125 -112.3515625 52.1328125 -114.3515625 52.1328125 C-114.3515625 52.7928125 -114.3515625 53.4528125 -114.3515625 54.1328125 C-115.35574219 54.67679688 -116.35992188 55.22078125 -117.39453125 55.78125 C-121.44503701 58.09669903 -125.03299943 60.84048149 -128.6640625 63.7578125 C-129.28345703 64.24765625 -129.90285156 64.7375 -130.54101562 65.2421875 C-132.91048262 67.12541208 -135.20966138 68.99091138 -137.3515625 71.1328125 C-138.6715625 71.1328125 -139.9915625 71.1328125 -141.3515625 71.1328125 C-140.48968239 66.57680993 -137.79643357 64.05968133 -134.6640625 60.8203125 C-133.56533693 59.66247212 -132.46766909 58.50362704 -131.37109375 57.34375 C-130.583396 56.51375488 -130.583396 56.51375488 -129.77978516 55.66699219 C-128.06038663 53.82003487 -126.4472014 51.89966092 -124.8515625 49.9453125 C-122.52467683 47.32756612 -121.35231235 46.58574474 -118.3515625 45.1328125 C-117.20635782 43.98760782 -116.06377951 42.83960341 -114.9375 41.67578125 C-107.64196504 34.57790857 -99.13110762 29.18903124 -90.3515625 24.1328125 C-89.75682129 23.78686035 -89.16208008 23.4409082 -88.54931641 23.08447266 C-80.07869197 18.20321051 -71.7303234 14.60691961 -62.33789062 11.76123047 C-60.26355812 11.10497041 -58.22402985 10.3809311 -56.1796875 9.63671875 C-38.11153311 3.1342133 -19.1888843 -0.03871095 0 0 Z " fill="#FEFEFE" transform="translate(1071.3515625,897.8671875)"/>
<path d="M0 0 C1.34918015 -0.01052147 1.34918015 -0.01052147 2.72561646 -0.02125549 C5.63223273 -0.03874978 8.53864542 -0.0451127 11.4453125 -0.046875 C12.43595703 -0.04754974 13.42660156 -0.04822449 14.44726562 -0.04891968 C40.11481168 -0.02110832 65.52956199 1.89413966 89.453125 11.9921875 C92.07332244 13.01005869 94.60722524 13.78970506 97.30859375 14.54296875 C102.76025939 16.15058945 107.62497292 18.47689063 112.6328125 21.140625 C113.98439453 21.85327515 113.98439453 21.85327515 115.36328125 22.58032227 C128.06155169 29.43805899 140.46644263 37.84665839 150.5703125 48.203125 C151.3953125 49.028125 152.2203125 49.853125 153.0703125 50.703125 C153.8953125 51.528125 154.7203125 52.353125 155.5703125 53.203125 C156.3334375 53.945625 157.0965625 54.688125 157.8828125 55.453125 C161.58792924 59.24440724 165.07340017 63.22028937 168.5703125 67.203125 C168.2403125 68.193125 167.9103125 69.183125 167.5703125 70.203125 C164.6741078 68.85434517 162.26729863 67.3088617 159.76171875 65.33203125 C120.57618488 35.03787344 72.68703267 24.68601665 23.9453125 24.953125 C22.50828979 24.9562822 22.50828979 24.9562822 21.04223633 24.95950317 C7.02061327 24.99556462 -6.8531331 25.43474826 -20.8046875 26.93310547 C-25.6727217 27.43385378 -30.55189992 27.81089598 -35.4296875 28.203125 C-32.8496431 19.33503268 -26.71531058 12.56783374 -20.8671875 5.578125 C-20.18527344 4.76085937 -19.50335937 3.94359375 -18.80078125 3.1015625 C-13.79248365 -0.90837594 -6.19221106 0.03213721 0 0 Z " fill="#FEFEFE" transform="translate(749.4296875,897.796875)"/>
<path d="M0 0 C8.91772304 9.45650214 9.03972635 20.7162558 9.25390625 33.08203125 C9.27468735 34.09172974 9.29546844 35.10142822 9.31687927 36.14172363 C9.38182466 39.34051255 9.44100185 42.53937767 9.5 45.73828125 C9.54323764 47.91797636 9.58685353 50.09766401 9.63085938 52.27734375 C9.73744902 57.59757984 9.83886856 62.91789192 9.9375 68.23828125 C3.6675 68.23828125 -2.6025 68.23828125 -9.0625 68.23828125 C-9.7225 62.95828125 -10.3825 57.67828125 -11.0625 52.23828125 C-12.031875 53.92953125 -13.00125 55.62078125 -14 57.36328125 C-18.06918422 63.79441558 -22.82054258 67.82429544 -30.0625 70.23828125 C-46.53851597 71.43049593 -46.53851597 71.43049593 -53.0625 66.23828125 C-57.62779505 61.55284686 -59.35236199 56.92181176 -59.4375 50.42578125 C-59.29089546 43.78785346 -57.970867 39.52932812 -53.578125 34.55859375 C-45.08268386 27.0029138 -30.97771607 26.04138068 -20.11523438 24.27661133 C-16.17220589 23.64479722 -16.17220589 23.64479722 -13.0625 21.23828125 C-12.84573592 17.84231062 -12.98176148 15.4804968 -14.0625 12.23828125 C-20.07616298 10.23372692 -26.77627996 10.2176473 -32.5625 12.80078125 C-35.58208566 15.74487727 -37.18072057 18.47472238 -39.0625 22.23828125 C-45.37371503 21.13899175 -51.12588584 19.65690183 -57.0625 17.23828125 C-56.31796189 9.42063108 -52.14951415 4.73192511 -46.3359375 -0.15234375 C-33.91123075 -8.94784063 -11.97446745 -10.22819095 0 0 Z M-22.875 36.05078125 C-23.68259766 36.21642578 -24.49019531 36.38207031 -25.32226562 36.55273438 C-31.20875375 37.8303096 -35.57395809 39.00546839 -39.0625 44.23828125 C-38.98715547 48.38223046 -38.68887764 50.51978925 -35.9375 53.67578125 C-32.23062866 55.69038524 -30.2448024 55.8053731 -26.0625 55.23828125 C-19.40091859 53.17267461 -15.57294895 49.15381287 -12.0625 43.23828125 C-10.90308962 39.7600501 -11.35429116 37.77932547 -12.0625 34.23828125 C-15.73080232 34.23828125 -19.30175295 35.27765541 -22.875 36.05078125 Z " fill="#FFFFFF" transform="translate(1247.0625,767.76171875)"/>
<path d="M0 0 C8.91772304 9.45650214 9.03972635 20.7162558 9.25390625 33.08203125 C9.27468735 34.09172974 9.29546844 35.10142822 9.31687927 36.14172363 C9.38182466 39.34051255 9.44100185 42.53937767 9.5 45.73828125 C9.54323764 47.91797636 9.58685353 50.09766401 9.63085938 52.27734375 C9.73744902 57.59757984 9.83886856 62.91789192 9.9375 68.23828125 C3.6675 68.23828125 -2.6025 68.23828125 -9.0625 68.23828125 C-9.7225 62.95828125 -10.3825 57.67828125 -11.0625 52.23828125 C-12.031875 53.92953125 -13.00125 55.62078125 -14 57.36328125 C-18.06918422 63.79441558 -22.82054258 67.82429544 -30.0625 70.23828125 C-46.53851597 71.43049593 -46.53851597 71.43049593 -53.0625 66.23828125 C-57.62779505 61.55284686 -59.35236199 56.92181176 -59.4375 50.42578125 C-59.29089546 43.78785346 -57.970867 39.52932812 -53.578125 34.55859375 C-45.08268386 27.0029138 -30.97771607 26.04138068 -20.11523438 24.27661133 C-16.17220589 23.64479722 -16.17220589 23.64479722 -13.0625 21.23828125 C-12.84573592 17.84231062 -12.98176148 15.4804968 -14.0625 12.23828125 C-20.07616298 10.23372692 -26.77627996 10.2176473 -32.5625 12.80078125 C-35.58208566 15.74487727 -37.18072057 18.47472238 -39.0625 22.23828125 C-45.37371503 21.13899175 -51.12588584 19.65690183 -57.0625 17.23828125 C-56.31796189 9.42063108 -52.14951415 4.73192511 -46.3359375 -0.15234375 C-33.91123075 -8.94784063 -11.97446745 -10.22819095 0 0 Z M-22.875 36.05078125 C-23.68259766 36.21642578 -24.49019531 36.38207031 -25.32226562 36.55273438 C-31.20875375 37.8303096 -35.57395809 39.00546839 -39.0625 44.23828125 C-38.98715547 48.38223046 -38.68887764 50.51978925 -35.9375 53.67578125 C-32.23062866 55.69038524 -30.2448024 55.8053731 -26.0625 55.23828125 C-19.40091859 53.17267461 -15.57294895 49.15381287 -12.0625 43.23828125 C-10.90308962 39.7600501 -11.35429116 37.77932547 -12.0625 34.23828125 C-15.73080232 34.23828125 -19.30175295 35.27765541 -22.875 36.05078125 Z " fill="#FFFFFF" transform="translate(391.0625,767.76171875)"/>
<path d="M0 0 C10.22165933 10.45937233 10.6875 21.15899689 10.6875 35.75 C-5.8125 35.75 -22.3125 35.75 -39.3125 35.75 C-36.6344823 46.40213087 -36.6344823 46.40213087 -29.0625 52.5625 C-23.63514064 54.2811638 -19.61144887 54.45736888 -14.0625 52.75 C-10.35471194 50.05342686 -9.00033266 46.92986795 -7.3125 42.75 C-5.26987483 43.03487651 -3.22842973 43.32822051 -1.1875 43.625 C-0.05054688 43.78742187 1.08640625 43.94984375 2.2578125 44.1171875 C5.54828915 44.72431417 8.54529103 45.61345633 11.6875 46.75 C10.11044157 53.6254214 8.27551763 59.18432239 2.6875 63.75 C-8.87466365 70.78227963 -21.35445372 71.15893221 -34.5703125 69.2890625 C-40.39694847 67.7365106 -44.8749007 64.77635626 -49.3125 60.75 C-49.869375 60.25886719 -50.42625 59.76773438 -51 59.26171875 C-57.94065658 52.26900724 -59.68453226 42.28359666 -59.8125 32.75 C-59.66609222 21.8217048 -56.75061059 10.99310091 -49.3125 2.75 C-36.27396939 -9.56684073 -14.43663101 -10.8733913 0 0 Z M-35.625 16.125 C-37.77521215 19.0897544 -37.77521215 19.0897544 -38.3125 24.75 C-23.4625 24.255 -23.4625 24.255 -8.3125 23.75 C-9.33990867 17.585548 -10.1238988 16.03601053 -14.3125 11.75 C-22.31906717 6.89653454 -29.51185761 9.84663755 -35.625 16.125 Z " fill="#FFFFFF" transform="translate(558.3125,768.25)"/>
<path d="M0 0 C7.63914434 7.03087524 12.81855778 14.91751915 13.66796875 25.53515625 C13.66796875 29.49515625 13.66796875 33.45515625 13.66796875 37.53515625 C-2.83203125 37.53515625 -19.33203125 37.53515625 -36.33203125 37.53515625 C-34.21327647 47.52990859 -34.21327647 47.52990859 -28.1484375 53.51171875 C-24.06098748 55.81475511 -19.95039255 55.92001969 -15.33203125 55.53515625 C-11.58316151 54.39119968 -8.33263569 53.09276382 -6.16015625 49.7109375 C-5.21089719 47.59845597 -5.21089719 47.59845597 -4.33203125 44.53515625 C8.33767262 46.46226331 8.33767262 46.46226331 13.66796875 48.53515625 C13.38832621 55.10675593 10.96360276 59.57937069 6.66796875 64.53515625 C-3.51022244 73.04445374 -16.77550893 72.54270067 -29.33203125 71.53515625 C-37.54574047 69.93779402 -45.04937275 65.95833753 -50.0859375 59.171875 C-54.97984625 51.40058376 -56.70801669 44.32011963 -56.64453125 35.22265625 C-56.6388916 34.38033447 -56.63325195 33.5380127 -56.62744141 32.67016602 C-56.41020555 21.54489399 -53.17304785 12.20651345 -45.73828125 3.71484375 C-34.75947554 -6.5907333 -12.47286226 -9.44413191 0 0 Z M-31.33203125 15.53515625 C-34.78010101 20.69957488 -34.78010101 20.69957488 -36.33203125 26.53515625 C-20.98703125 26.04015625 -20.98703125 26.04015625 -5.33203125 25.53515625 C-7.64252164 17.05572518 -7.64252164 17.05572518 -13.33203125 12.53515625 C-19.08325429 9.65954473 -26.80987988 11.0803322 -31.33203125 15.53515625 Z " fill="#FFFFFF" transform="translate(1361.33203125,766.46484375)"/>
<path d="M0 0 C4.94801247 3.81857484 7.50607917 8.98018187 8.796875 15.01171875 C9.09801798 20.04228754 9.03862544 24.97525126 8.796875 30.01171875 C9.209375 29.480625 9.621875 28.94953125 10.046875 28.40234375 C15.04847137 22.28431962 19.46921647 18.60863717 27.421875 17.51171875 C31.51519096 18.11813593 33.63774968 19.36686964 36.796875 22.01171875 C39.75217211 26.65575706 39.28321864 31.70053745 38.796875 37.01171875 C36.73078846 43.20997837 32.53246144 46.4311577 26.984375 49.63671875 C24.40784228 50.74816424 21.97133721 51.58034823 19.296875 52.38671875 C12.18871846 54.75610426 9.07414741 58.06927838 5.609375 64.57421875 C1.05602815 74.3228987 -0.52870824 84.27917632 -1.7734375 94.859375 C-2.203125 98.01171875 -2.203125 98.01171875 -3.203125 101.01171875 C-4.853125 101.01171875 -6.503125 101.01171875 -8.203125 101.01171875 C-8.76106693 82.55830608 -6.77865889 66.08577931 -0.5078125 48.671875 C0.41293231 46.08882743 1.17052001 43.66294713 1.796875 41.01171875 C1.178125 41.65109375 0.559375 42.29046875 -0.078125 42.94921875 C-2.93433095 45.72141864 -4.56969689 46.19873383 -8.453125 46.32421875 C-9.57460938 46.38029297 -9.57460938 46.38029297 -10.71875 46.4375 C-14.18188502 45.84397529 -16.40305638 44.06321411 -19.203125 42.01171875 C-19.00154785 42.59550293 -18.7999707 43.17928711 -18.59228516 43.78076172 C-17.6642909 46.48052674 -16.74617948 49.18355833 -15.828125 51.88671875 C-15.51101563 52.80453125 -15.19390625 53.72234375 -14.8671875 54.66796875 C-11.06867879 65.90522368 -9.9190681 75.75639199 -10.078125 87.63671875 C-10.08714844 88.92707031 -10.09617187 90.21742188 -10.10546875 91.546875 C-10.1288402 94.70202124 -10.16160409 97.85676801 -10.203125 101.01171875 C-11.853125 100.68171875 -13.503125 100.35171875 -15.203125 100.01171875 C-15.35007812 98.43197266 -15.35007812 98.43197266 -15.5 96.8203125 C-17.59902498 73.56828669 -17.59902498 73.56828669 -29.703125 54.63671875 C-33.20870356 52.24866808 -36.69146748 51.19215635 -40.765625 50.07421875 C-47.95097622 48.07365692 -51.74602078 44.96445163 -55.640625 38.69921875 C-56.75686617 33.36606651 -57.14056474 28.10979817 -54.890625 23.07421875 C-54.33375 22.39359375 -53.776875 21.71296875 -53.203125 21.01171875 C-52.6153125 20.14546875 -52.6153125 20.14546875 -52.015625 19.26171875 C-48.96686103 17.15912291 -45.80650814 16.8115308 -42.203125 17.01171875 C-35.83425859 18.84004352 -31.53106386 23.19688677 -27.203125 28.01171875 C-27.17734375 27.18929687 -27.1515625 26.366875 -27.125 25.51953125 C-26.66796946 16.52433918 -25.5396808 8.99930982 -19.640625 1.94921875 C-14.45205517 -2.17502906 -6.04183635 -2.71025638 0 0 Z M-16.953125 10.13671875 C-18.58426589 13.8883428 -19.06509484 16.98648221 -18.203125 21.01171875 C-15.80887719 24.32141425 -14.096869 25.68844964 -10.265625 27.07421875 C-6.14198403 26.99006281 -4.32558504 25.63742378 -1.203125 23.01171875 C0.88866007 20.37425062 0.79765731 19.05396354 0.734375 15.63671875 C-0.4651374 10.99860413 -1.66472183 9.2355972 -5.203125 6.01171875 C-10.33507078 5.17385005 -13.66043765 6.13845554 -16.953125 10.13671875 Z M-46.953125 28.19921875 C-49.33815023 30.7595632 -49.33815023 30.7595632 -49.765625 33.51171875 C-48.73942026 38.07262869 -45.99019747 40.48700377 -42.203125 43.01171875 C-38.09287328 43.44325298 -38.09287328 43.44325298 -34.390625 41.88671875 C-32.65945146 39.15328685 -32.26673015 37.25558165 -32.203125 34.01171875 C-33.85277483 30.83461538 -35.23998143 28.67387995 -38.203125 26.63671875 C-42.09640574 25.42006852 -43.78802717 25.6815273 -46.953125 28.19921875 Z M15.796875 32.01171875 C14.51854114 35.621132 14.50841634 37.24815171 15.859375 40.82421875 C17.67351027 43.21470829 17.67351027 43.21470829 20.609375 44.07421875 C24.81376868 43.99177966 26.61083395 42.69088964 29.796875 40.01171875 C31.80029674 37.39855996 31.8128369 36.27242974 31.609375 32.94921875 C30.61519241 29.28614588 30.61519241 29.28614588 27.796875 27.01171875 C22.2113461 26.01873583 19.56548046 27.98018733 15.796875 32.01171875 Z M-26.203125 30.01171875 C-25.203125 32.01171875 -25.203125 32.01171875 -25.203125 32.01171875 Z M-21.203125 39.01171875 C-20.203125 41.01171875 -20.203125 41.01171875 -20.203125 41.01171875 Z " fill="#FDFDFD" transform="translate(931.203125,738.98828125)"/>
<path d="M0 0 C2.02685547 -0.24829102 2.02685547 -0.24829102 5.90185547 0.37670898 C12.43952919 5.64824106 17.2597642 13.45043516 19.90185547 21.37670898 C17.31026807 22.24057145 15.46538451 22.57495471 12.78857422 22.77124023 C-27.73259223 26.02196113 -68.87500163 37.11854115 -102.09814453 61.37670898 C-103.11392578 62.02639648 -104.12970703 62.67608398 -105.17626953 63.34545898 C-108.20076751 65.44805116 -110.53884499 67.7342124 -113.09814453 70.37670898 C-114.11901622 71.30589559 -115.14808923 72.22613082 -116.18408203 73.13842773 C-124.54278233 80.54573125 -131.47784933 88.04899031 -136.09814453 98.37670898 C-136.75814453 98.37670898 -137.41814453 98.37670898 -138.09814453 98.37670898 C-137.62568493 92.59865577 -136.43265429 88.10074585 -133.72314453 82.93920898 C-133.37445312 82.26035645 -133.02576172 81.58150391 -132.66650391 80.88208008 C-126.5697816 69.29565695 -119.31760174 56.78101746 -110.09814453 47.37670898 C-109.43814453 47.37670898 -108.77814453 47.37670898 -108.09814453 47.37670898 C-107.87126953 46.81983398 -107.64439453 46.26295898 -107.41064453 45.68920898 C-105.73176068 42.73117553 -103.56048122 40.66983296 -101.09814453 38.37670898 C-100.43041016 37.71541992 -99.76267578 37.05413086 -99.07470703 36.37280273 C-87.00934209 24.84857542 -72.51250387 18.27804233 -57.09814453 12.37670898 C-56.38352051 12.09698242 -55.66889648 11.81725586 -54.93261719 11.52905273 C-38.82499321 5.31562965 -21.40179853 2.0609181 -4.23144531 0.57958984 C-2.0959913 0.40618839 -2.0959913 0.40618839 0 0 Z " fill="#FEFEFD" transform="translate(1062.09814453125,863.623291015625)"/>
<path d="M0 0 C24.40247239 8.54715343 44.89741104 20.17852805 62.08984375 39.8359375 C63.90758173 41.96028684 63.90758173 41.96028684 65.69140625 43.6015625 C67 45 67 45 68 48 C68.66 48.33 69.32 48.66 70 49 C71.04296875 50.6796875 71.04296875 50.6796875 72.1875 52.875 C74.75487536 57.66384686 77.65377078 62.18087639 80.64453125 66.71484375 C82 69 82 69 82 71 C82.66 71 83.32 71 84 71 C84.99 75.455 84.99 75.455 86 80 C81.42934059 78.85733515 79.71450496 76.95358344 76.75 73.5625 C76.29109375 73.05912109 75.8321875 72.55574219 75.359375 72.03710938 C72 68.27280971 72 68.27280971 72 66 C71.46375 65.773125 70.9275 65.54625 70.375 65.3125 C66.27229083 63.04521336 62.95586169 59.99871066 59.734375 56.6328125 C50.24909401 47.49984195 37.86370716 41.43588745 26 36 C25.11183594 35.59217285 24.22367188 35.1843457 23.30859375 34.76416016 C-4.97132183 21.88910335 -32.67158133 16.04104862 -63.59936523 13.30957031 C-66 13 -66 13 -68 12 C-67.42316338 8.10635283 -65.45178223 5.98810959 -63 3 C-62.67 2.01 -62.34 1.02 -62 0 C-61.195625 -0.639375 -60.39125 -1.27875 -59.5625 -1.9375 C-57.05958997 -3.95203734 -56.27405834 -5.15786986 -55 -8 C-42.21670183 -14.39164909 -12.83613989 -4.12417354 0 0 Z " fill="#FEFEFD" transform="translate(834,873)"/>
<path d="M0 0 C5.03969615 5.27410062 7.71987795 10.58134594 8.6875 17.8125 C6.29622043 18.68178276 3.90088274 19.53301601 1.5 20.375 C0.82646484 20.62185547 0.15292969 20.86871094 -0.54101562 21.12304688 C-4.44554665 22.47534786 -7.39152394 23.41422959 -11.3125 21.8125 C-12.9375 18.4375 -12.9375 18.4375 -14.3125 14.8125 C-16.33189864 12.2882517 -17.15750596 11.86416468 -20.3125 10.8125 C-25.00203585 10.42811182 -27.37693464 10.35354341 -31.625 12.4375 C-36.42738519 16.68146831 -38.11149734 21.70855502 -38.515625 27.94921875 C-38.72423689 39.98318135 -38.72423689 39.98318135 -33.1875 50.25 C-27.96916575 53.08605122 -23.38882717 54.1528815 -17.5 53.1875 C-13.41715335 51.42627204 -11.23773872 49.89428711 -9.40625 45.7734375 C-8.65537275 43.80586101 -7.97847101 41.81041303 -7.3125 39.8125 C-1.17095775 40.39740879 4.69429849 41.35316252 10.6875 42.8125 C10.45774997 51.83541015 7.43508196 57.43867946 0.9375 63.625 C-5.50806365 69.52409195 -13.88065407 70.32736421 -22.25 70.1875 C-23.56822754 70.17227295 -23.56822754 70.17227295 -24.91308594 70.15673828 C-35.05795894 69.91375859 -42.81478154 67.95548769 -50.3125 60.8125 C-54.77264121 55.92758344 -57.32372482 51.09284267 -59.3125 44.8125 C-59.49683594 44.23113281 -59.68117187 43.64976562 -59.87109375 43.05078125 C-62.37882507 30.33458613 -60.09989577 16.96841837 -53.10546875 6.10546875 C-46.86130241 -1.87999017 -39.15665645 -5.03782988 -29.5 -6.9375 C-18.70731953 -7.9459612 -9.05215927 -5.97784103 0 0 Z " fill="#FFFFFF" transform="translate(314.3125,768.1875)"/>
<path d="M0 0 C2.76371456 2.10211226 5.65264372 3.88869895 8.64453125 5.64453125 C10.45790395 6.85487199 11.87822156 8.09757549 13.30078125 9.75 C13.30078125 10.41 13.30078125 11.07 13.30078125 11.75 C13.96078125 11.75 14.62078125 11.75 15.30078125 11.75 C15.30078125 12.74 15.30078125 13.73 15.30078125 14.75 C13.32078125 14.75 11.34078125 14.75 9.30078125 14.75 C9.30078125 14.09 9.30078125 13.43 9.30078125 12.75 C8.718125 12.59144531 8.13546875 12.43289063 7.53515625 12.26953125 C2.79949036 10.92180243 -1.67848301 9.36885643 -6.17578125 7.359375 C-12.90909711 4.52709901 -19.70967353 2.78518497 -26.82421875 1.1875 C-27.47294952 1.03970093 -28.1216803 0.89190186 -28.79006958 0.73962402 C-42.00172158 -2.26131497 -55.25668186 -4.5581789 -68.69921875 -6.25 C-69.84277832 -6.39953125 -70.98633789 -6.5490625 -72.16455078 -6.703125 C-88.60502434 -8.78994752 -104.83196072 -9.51845981 -121.38671875 -9.5 C-122.25329102 -9.49931519 -123.11986328 -9.49863037 -124.01269531 -9.4979248 C-133.50769447 -9.47311366 -142.984414 -9.25248021 -152.46875 -8.796875 C-153.27720871 -8.7586261 -154.08566742 -8.7203772 -154.91862488 -8.68096924 C-159.88756832 -8.41886058 -164.76514365 -7.88800703 -169.69921875 -7.25 C-172.03179881 -7.1871611 -174.365919 -7.16319479 -176.69921875 -7.1875 C-177.83359375 -7.19652344 -178.96796875 -7.20554687 -180.13671875 -7.21484375 C-180.98234375 -7.22644531 -181.82796875 -7.23804688 -182.69921875 -7.25 C-182.69921875 -8.57 -182.69921875 -9.89 -182.69921875 -11.25 C-166.98946901 -18.60073176 -150.44327567 -22.38739257 -133.38671875 -25.0625 C-132.72579224 -25.16763916 -132.06486572 -25.27277832 -131.38391113 -25.38110352 C-86.33769836 -32.44991966 -37.25678876 -28.73929584 0 0 Z " fill="#FEFEFD" transform="translate(899.69921875,967.25)"/>
<path d="M0 0 C27.70618208 -0.73561572 55.20821509 3.06457745 81.64208984 11.36572266 C83.61097411 11.98295916 85.58891097 12.5711476 87.56787109 13.15527344 C89.06833984 13.63287109 89.06833984 13.63287109 90.59912109 14.12011719 C91.41896484 14.37921875 92.23880859 14.63832031 93.08349609 14.90527344 C94.84912109 16.05761719 94.84912109 16.05761719 95.61474609 18.67871094 C95.69208984 19.46375 95.76943359 20.24878906 95.84912109 21.05761719 C89.26741492 21.19201391 82.79646615 20.87393263 76.23681641 20.34545898 C22.02153799 16.05553863 -44.42170021 16.52110485 -93.32275391 42.70214844 C-96.15087891 44.05761719 -96.15087891 44.05761719 -99.15087891 44.05761719 C-98.27798369 38.95453748 -94.98059931 36.29177083 -91.15087891 33.05761719 C-88.86964799 31.59816828 -86.53656028 30.34588513 -84.15087891 29.05761719 C-83.82087891 28.39761719 -83.49087891 27.73761719 -83.15087891 27.05761719 C-81.47397532 26.06605681 -79.79276131 25.08072354 -78.0859375 24.14160156 C-75.73653478 22.8255092 -73.48874604 21.36318503 -71.22119141 19.91210938 C-49.58498651 6.31736063 -25.33056724 0.67854868 0 0 Z " fill="#FEFEFD" transform="translate(1033.15087890625,938.9423828125)"/>
<path d="M0 0 C6.93 0 13.86 0 21 0 C21 32.34 21 64.68 21 98 C14.07 98 7.14 98 0 98 C0 65.66 0 33.32 0 0 Z " fill="#FFFFFF" transform="translate(1271,738)"/>
<path d="M0 0 C24.42 0 48.84 0 74 0 C74.495 1.485 74.495 1.485 75 3 C73.35 6.3 71.7 9.6 70 13 C47.89 13 25.78 13 3 13 C-1 4 -1 4 0 0 Z " fill="#FEFDFD" transform="translate(887,857)"/>
<path d="M0 0 C19.8 0 39.6 0 60 0 C59 7 59 7 56 13 C39.17 13 22.34 13 5 13 C1 4 1 4 0 0 Z " fill="#FDFDFD" transform="translate(893,874)"/>
<path d="M0 0 C14.85 0 29.7 0 45 0 C44.0007268 3.99709281 42.60284808 6.99117044 40.6875 10.625 C40.09324219 11.77226563 39.49898437 12.91953125 38.88671875 14.1015625 C36.91624968 17.12865992 36.24393015 17.75505563 33 19 C29.38668413 19.46548054 25.76533152 19.41614212 22.125 19.4375 C21.14402344 19.47037109 20.16304687 19.50324219 19.15234375 19.53710938 C11.05854907 19.59718477 11.05854907 19.59718477 7.484375 16.7890625 C5.19412788 14.21793602 3.59068962 12.03652347 2.125 8.9375 C1.51011719 7.68259766 1.51011719 7.68259766 0.8828125 6.40234375 C0 4 0 4 0 0 Z " fill="#FEFEFD" transform="translate(901,891)"/>
</svg>